# xmcd
#
# Track frame offsets: 
#        150
#        12433
#        23626
#        32257
#        43803
#        55303
#        65046
#        76008
#        82635
#        94379
#        105133
#        113671
#        121781
#        134471
#        144523
#        158160
#        169048
#        178622
#        190268
#        200671
#        210971
#        223321
#        239213
#        252705
#        261392
#        282127
#        300164
#        315241
#        326968
#        344251
#
# Disc length: 4763 seconds
#
# Revision: 1
# Processed by: cddbd v1.5.2PL0 Copyright (c) Steve Scherf et al.
# Submitted via: ExactAudioCopyFreeDBPlugin 1.0
#
DISCID=a512991e
DTITLE=Elvis Presley - Hitstory [Disc 3]
DYEAR=1900
DGENRE=ロック
TTITLE0=Blue Moon
TTITLE1=Mystery Train
TTITLE2=Rip It Up
TTITLE3=Got A Lot O' Livin' To Do!
TTITLE4=Trying To Get To You
TTITLE5=Lawdy, Miss Clawdy
TTITLE6=Paralyzed
TTITLE7=Party
TTITLE8=I'm Left, You're Right, She's Gone
TTITLE9=The Girl Of My Best Friend
TTITLE10=Wild In The Country
TTITLE11=One Broken Heart For Sale
TTITLE12=Kiss Me Quick
TTITLE13=Kissin' Cousins
TTITLE14=Such A Night
TTITLE15=Ain't That Loving You Baby
TTITLE16=Tell Me Why
TTITLE17=Frankie And Johnny
TTITLE18=All That I Am
TTITLE19=Guitar Man
TTITLE20=U.S. Male
TTITLE21=I've Lost You
TTITLE22=There Goes My Everything
TTITLE23=Rags To Riches
TTITLE24=I Just Can't Help Believin'
TTITLE25=Until It's Time For You To Go
TTITLE26=My Boy
TTITLE27=Suspicion
TTITLE28=My Way
TTITLE29=Are You Lonesome Tonight? [Laughing]
EXTD=
EXTT0=
EXTT1=
EXTT2=
EXTT3=
EXTT4=
EXTT5=
EXTT6=
EXTT7=
EXTT8=
EXTT9=
EXTT10=
EXTT11=
EXTT12=
EXTT13=
EXTT14=
EXTT15=
EXTT16=
EXTT17=
EXTT18=
EXTT19=
EXTT20=
EXTT21=
EXTT22=
EXTT23=
EXTT24=
EXTT25=
EXTT26=
EXTT27=
EXTT28=
EXTT29=
PLAYORDER=
